<?xml version="1.0" encoding="UTF-8" standalone="no"?>
<!-- Created with Inkscape (http://www.inkscape.org/) -->

<svg
   width="197.45007mm"
   height="185.20375mm"
   viewBox="0 0 197.45007 185.20375"
   version="1.1"
   id="svg1"
   xml:space="preserve"
   xmlns="http://www.w3.org/2000/svg"
   xmlns:svg="http://www.w3.org/2000/svg"><defs
     id="defs1"><filter
       style="color-interpolation-filters:sRGB"
       id="filter120"
       x="-0.052657586"
       y="-0.050304931"
       width="1.1053152"
       height="1.1006099"><feGaussianBlur
         stdDeviation="0.5"
         result="result1"
         id="feGaussianBlur115" /><feBlend
         in="SourceGraphic"
         mode="normal"
         result="result5"
         in2="result1"
         id="feBlend115" /><feGaussianBlur
         stdDeviation="3"
         result="result6"
         in="result5"
         id="feGaussianBlur116" /><feComposite
         operator="xor"
         in="result6"
         in2="result6"
         result="result8"
         id="feComposite116" /><feComposite
         operator="in"
         result="fbSourceGraphic"
         in="result6"
         in2="result8"
         id="feComposite117" /><feColorMatrix
         result="fbSourceGraphicAlpha"
         in="fbSourceGraphic"
         values="0 0 0 -1 0 0 0 0 -1 0 0 0 0 -1 0 0 0 0 1 0 "
         id="feColorMatrix117" /><feSpecularLighting
         specularExponent="55"
         specularConstant="2"
         surfaceScale="2"
         lighting-color="#ffffff"
         result="result1"
         in="result0"
         id="feSpecularLighting117"><fePointLight
           z="20000"
           y="-10000"
           x="-5000"
           id="fePointLight117" /></feSpecularLighting><feComposite
         operator="arithmetic"
         result="result2"
         in="result1"
         in2="fbSourceGraphicAlpha"
         k1="1"
         id="feComposite118"
         k2="0"
         k3="0"
         k4="0" /><feComposite
         k3="1.5"
         k2="1.3"
         operator="arithmetic"
         result="result4"
         in="fbSourceGraphic"
         in2="result2"
         id="feComposite119"
         k1="0"
         k4="0" /><feGaussianBlur
         result="result90"
         in="result4"
         stdDeviation="0.5"
         id="feGaussianBlur119" /><feComposite
         operator="over"
         in="result9"
         in2="result4"
         result="result91"
         id="feComposite120" /><feBlend
         mode="screen"
         in2="result91"
         id="feBlend120" /></filter><filter
       style="color-interpolation-filters:sRGB"
       id="filter134"
       x="-0.052657586"
       y="-0.050304927"
       width="1.1053152"
       height="1.1006099"><feGaussianBlur
         stdDeviation="0.5"
         result="result1"
         id="feGaussianBlur129" /><feBlend
         in="SourceGraphic"
         mode="normal"
         result="result5"
         in2="result1"
         id="feBlend129" /><feGaussianBlur
         stdDeviation="3"
         result="result6"
         in="result5"
         id="feGaussianBlur130" /><feComposite
         operator="xor"
         in="result6"
         in2="result6"
         result="result8"
         id="feComposite130" /><feComposite
         operator="in"
         result="fbSourceGraphic"
         in="result6"
         in2="result8"
         id="feComposite131" /><feColorMatrix
         result="fbSourceGraphicAlpha"
         in="fbSourceGraphic"
         values="0 0 0 -1 0 0 0 0 -1 0 0 0 0 -1 0 0 0 0 1 0 "
         id="feColorMatrix131" /><feSpecularLighting
         specularExponent="55"
         specularConstant="2"
         surfaceScale="2"
         lighting-color="#ffffff"
         result="result1"
         in="result0"
         id="feSpecularLighting131"><fePointLight
           z="20000"
           y="-10000"
           x="-5000"
           id="fePointLight131" /></feSpecularLighting><feComposite
         operator="arithmetic"
         result="result2"
         in="result1"
         in2="fbSourceGraphicAlpha"
         k1="1"
         id="feComposite132"
         k2="0"
         k3="0"
         k4="0" /><feComposite
         k3="1.5"
         k2="1.3"
         operator="arithmetic"
         result="result4"
         in="fbSourceGraphic"
         in2="result2"
         id="feComposite133"
         k1="0"
         k4="0" /><feGaussianBlur
         result="result90"
         in="result4"
         stdDeviation="0.5"
         id="feGaussianBlur133" /><feComposite
         operator="over"
         in="result9"
         in2="result4"
         result="result91"
         id="feComposite134" /><feBlend
         mode="screen"
         in2="result91"
         id="feBlend134" /></filter><filter
       style="color-interpolation-filters:sRGB"
       id="filter148"
       x="-0.07266747"
       y="-0.069420802"
       width="1.1453349"
       height="1.1388416"><feGaussianBlur
         stdDeviation="2.76 2.76"
         result="fbSourceGraphic"
         id="feGaussianBlur148" /><feColorMatrix
         result="fbSourceGraphicAlpha"
         in="fbSourceGraphic"
         values="0 0 0 -1 0 0 0 0 -1 0 0 0 0 -1 0 0 0 0 1 0"
         id="feColorMatrix148" /><feGaussianBlur
         id="feGaussianBlur149"
         stdDeviation="2.76 2.76"
         result="blur"
         in="fbSourceGraphic" /></filter></defs><path
     style="display:inline;fill:#000000;stroke-width:0.225469"
     d="M 75.582163,5.4095838 55.629645,10.145395 41.15733,18.549388 38.413806,32.019411 42.667001,47.260585 34.432432,37.159514 33.663871,23.984205 25.539098,33.536304 22.245271,46.9312 l 5.379917,10.540249 15.041813,12.07737 -14.163458,-5.92889 -8.783541,-9.99128 -0.219587,14.93202 7.466008,11.63819 30.632594,9.11292 -27.228972,-3.40362 20.202141,15.590791 25.36247,8.12476 -14.383045,-7.68559 -2.086091,-6.258268 12.516544,5.160328 15.480989,7.466 -2.086091,7.6856 -9.771688,12.29696 1.976296,7.6856 8.893336,-12.73614 -7.905188,20.09235 11.528395,14.71243 2.635059,-27.66815 4.721165,37.65943 4.501553,-37.98881 3.18404,28.32691 10.43045,-14.71243 -8.34436,-20.42173 9.5521,12.51655 1.97629,-7.6856 -7.24642,-8.23457 -4.39176,-11.19901 16.46913,-8.673748 10.75984,-3.51342 -6.69745,7.026838 -9.5521,6.36807 24.04493,-8.67375 21.51968,-14.822221 -27.22898,2.08609 30.30322,-8.12477 8.12477,-26.240833 -13.2851,12.187163 -10.43045,3.40362 12.18715,-9.991276 8.34437,-13.394897 -2.74486,-11.08922 -8.45415,-10.979424 -2.30568,14.492842 -6.91704,9.661893 3.733,-16.249548 -1.7567,-13.394899 -10.54025,-6.258272 -23.49597,-7.0268322 12.95572,8.0149802 7.13663,8.344363 3.07424,11.199013 -3.9526,16.79852 4.17219,9.003127 -0.76857,12.95572 -8.67374,10.10107 -15.48099,7.79539 12.29696,-8.34436 3.95259,-4.61136 5.27012,-16.688722 -11.4186,13.943872 -11.5284,7.13662 -9.00312,8.23457 -1.9763,-12.07737 5.05053,-1.97629 2.96445,1.42732 -1.8665,-3.95259 -6.03868,0.21959 -0.32938,-2.08609 -11.528406,0.21959 0.823463,-2.36058 -6.752351,0.98815 0.713663,-2.58017 -2.305678,0.87836 -9.277615,0.0549 5.764197,1.42733 -1.043046,0.76856 5.37992,0.16469 5.325021,2.41547 0.384277,11.08922 -2.415472,5.7642 -10.48535,-7.96008 -16.524032,-9.99128 -7.520907,-12.132265 -0.933251,7.905185 4.062386,8.34437 16.359344,13.44979 -12.845928,-6.42296 -8.399259,-9.11292 -2.799754,-9.607 4.446669,-14.32815 -2.30568,-23.495969 4.77605,-9.332512 z"
     id="path1" /><path
     style="display:inline;fill:#000000;stroke-width:0.264583;filter:url(#filter148)"
     d="M 85.827594,20.019 62.41379,25.576362 45.430874,35.438247 42.211413,51.244997 47.202436,69.130151 37.539366,57.276786 36.637478,41.815875 27.103251,53.025035 23.238023,68.743626 29.551228,81.112357 47.202436,95.284858 30.581956,88.327449 20.274681,76.602923 20.017,94.12529 l 8.761183,13.65714 35.946618,10.69379 -31.952549,-3.99407 23.70673,18.29542 29.762254,9.53422 -16.87816,-9.01886 -2.447978,-7.34393 14.687865,6.05552 18.166567,8.76118 -2.44797,9.01887 -11.466846,14.43018 2.319136,9.01887 10.43612,-14.94555 -9.276552,23.57789 13.528292,17.26468 3.09218,-32.46791 5.54017,44.19244 5.28247,-44.57896 3.73639,33.24096 12.23989,-17.26469 -9.79191,-23.96441 11.20916,14.68787 2.31913,-9.01887 -8.5035,-9.66307 -5.15363,-13.14177 19.32614,-10.17844 12.62641,-4.12291 -7.8593,8.24582 -11.20916,7.47278 28.21616,-10.17844 25.25282,-17.39352 -31.95255,2.44798 35.5601,-9.53423 9.53423,-30.792984 -15.58975,14.301343 -12.23989,3.994071 14.30134,-11.724526 9.79191,-15.718592 -3.22102,-13.012935 -9.92075,-12.884092 -2.70566,17.007004 -8.11698,11.338001 4.38059,-19.068457 -2.06145,-15.718594 -12.36873,-7.343933 -27.57196,-8.245819 15.20323,9.405387 8.37466,9.791911 3.60755,13.141775 -4.63828,19.712662 4.89596,10.564955 -0.90189,15.203233 -10.17843,11.85336 -18.16657,9.1477 14.43018,-9.7919 4.63827,-5.41132 6.18437,-19.583822 -13.39946,16.362792 -13.5283,8.37466 -10.56495,9.66307 -2.31914,-14.1725 5.92668,-2.31913 3.47871,1.67493 -2.1903,-4.63827 -7.08625,0.25768 -0.38652,-2.44798 -13.5283,0.25768 0.96631,-2.770078 -7.92372,1.159569 0.83747,-3.027762 -2.70566,1.030726 -10.887057,0.06442 6.764147,1.674932 -1.223989,0.901887 6.313209,0.19326 6.24878,2.834496 0.45094,13.01294 -2.8345,6.76415 L 90.557407,109.5862 71.166849,97.86168 62.341244,83.624752 61.246096,92.9013 l 4.767114,9.79191 19.197299,15.78301 -15.074389,-7.53719 -9.85633,-10.6938 -3.285445,-11.273577 5.21806,-16.813741 -2.705661,-27.571959 5.604581,-10.95148 z"
     id="path141"
     transform="matrix(0.85216901,0,0,0.85216901,6.8740762,-5.7700368)" /><path
     style="fill:#800000;stroke-width:0.225469"
     d="m 56.171692,10.31482 0.617593,2.209609 15.110433,-5.7779222 z"
     id="path2" /><path
     style="fill:#800000;stroke-width:0.225469"
     d="m 42.118029,18.71408 10.622594,7.246421 4.666256,-8.948232 -1.043046,-3.787901 z"
     id="path3" /><path
     style="fill:#800000;stroke-width:0.225469"
     d="M 43.215972,47.095892 54.799264,49.566262 41.843543,20.909966 Z"
     id="path4" /><path
     style="fill:#800000;stroke-width:0.225469"
     d="m 23.449417,44.382985 2.678451,-10.558531 6.055628,-7.336627 z"
     id="path5" /><path
     style="fill:#800000;stroke-width:0.225469"
     d="m 22.944781,47.216708 4.852266,9.782168 13.780434,-8.850534 z"
     id="path6" /><path
     style="fill:#800000;stroke-width:0.225469"
     d="m 42.315027,61.230049 0.03882,-7.297804 -12.8488,3.49363 z"
     id="path7" /><path
     style="fill:#800000;stroke-width:0.225469"
     d="M 50.517288,63.647379 47.196013,62.549429 54.11305,52.338568 Z"
     id="path8" /><path
     style="fill:#800000;stroke-width:0.225469"
     d="m 43.05128,62.192599 2.991893,0.85091 -3.156585,4.7486 z"
     id="path9" /><path
     style="fill:#800000;stroke-width:0.225469"
     d="m 44.615848,81.351699 -10.183416,-5.57206 8.481605,-5.8191 10.704939,4.39178 7.466008,8.26201 z"
     id="path10" /><path
     style="fill:#800000;stroke-width:0.225469"
     d="m 54.634573,87.719759 -10.567696,-5.95633 -13.72428,-1.04305 z"
     id="path11" /><path
     style="fill:#800000;stroke-width:0.225469"
     d="M 59.108687,95.213222 57.132392,89.833309 35.22844,87.088449 Z"
     id="path12" /><path
     style="fill:#800000;stroke-width:0.225469"
     d="M 33.930311,88.053379 70.807534,107.38481 50.73856,100.941 Z"
     id="path13" /><path
     style="fill:#800000;stroke-width:0.225469"
     d="M 75.232798,90.809469 71.467441,100.16464 60.753638,95.739372 Z"
     id="path14" /><path
     style="fill:#800000;stroke-width:0.225469"
     d="m 57.881095,88.829739 4.386451,-5.08517 12.615889,6.0168 z"
     id="path15" /><path
     style="fill:#800000;stroke-width:0.225469"
     d="m 68.439628,79.047569 10.364439,3.10545 -2.91136,7.25899 z"
     id="path16" /><path
     style="fill:#800000;stroke-width:0.225469"
     d="m 66.69281,77.766569 -3.49363,-5.08517 -3.726542,2.87254 z"
     id="path17" /><path
     style="fill:#800000;stroke-width:0.225469"
     d="m 73.99062,99.465912 15.798977,-9.277533 15.993073,-0.54345 -3.416,3.338353 z"
     id="path18" /><path
     style="fill:#800000;stroke-width:0.225469"
     d="m 89.75078,106.14263 13.12053,-12.732348 12.88761,-3.183083 z"
     id="path19" /><path
     style="fill:#800000;stroke-width:0.225469"
     d="m 117.35047,90.343649 14.1298,-7.14254 -22.59216,23.057971 z"
     id="path20" /><path
     style="fill:#800000;stroke-width:0.225469"
     d="m 88.042781,108.8599 18.671519,-0.11646 0.46582,13.15935 z"
     id="path21" /><path
     style="fill:#800000;stroke-width:0.225469"
     d="m 85.713694,116.50706 1.397453,6.44382 5.240449,6.83199 14.090984,-6.98727 z"
     id="path22" /><path
     style="fill:#800000;stroke-width:0.225469"
     d="m 108.07294,123.02851 3.26072,-2.67845 6.90963,7.84126 -1.66918,6.24972 z"
     id="path23" /><path
     style="fill:#800000;stroke-width:0.225469"
     d="m 92.041049,131.06387 -12.809983,12.11125 10.480895,13.54753 z"
     id="path24" /><path
     style="fill:#800000;stroke-width:0.225469"
     d="m 102.75485,131.60732 12.15007,11.91717 -9.31634,13.43107 z"
     id="path25" /><path
     style="fill:#800000;stroke-width:0.225469"
     d="m 121.42637,108.16117 6.71554,-4.27 8.92817,-1.5139 z"
     id="path26" /><path
     style="fill:#800000;stroke-width:0.225469"
     d="m 140.77276,97.587452 1.48739,2.974788 17.48516,-12.031381 z"
     id="path27" /><path
     style="fill:#800000;stroke-width:0.225469"
     d="m 135.6495,89.555519 4.13166,7.767513 -10.44482,5.123248 5.61905,-5.817368 z"
     id="path28" /><path
     style="fill:#800000;stroke-width:0.225469"
     d="m 136.40973,87.010409 5.78432,-15.10533 8.59384,-1.61961 2.74342,1.85098 z"
     id="path29" /><path
     style="fill:#800000;stroke-width:0.225469"
     d="m 154.85344,72.169509 6.18095,-5.22242 4.42914,12.36192 z"
     id="path30" /><path
     style="fill:#800000;stroke-width:0.225469"
     d="m 152.01086,68.203119 10.70925,-8.693005 -3.99944,-3.768069 z"
     id="path31" /><path
     style="fill:#800000;stroke-width:0.225469"
     d="m 151.9778,48.569492 9.91598,-0.694117 -3.37143,6.610647 z"
     id="path32" /><path
     style="fill:#800000;stroke-width:0.225469"
     d="m 165.49659,43.181815 -2.18152,3.834175 7.53614,-0.561907 z"
     id="path33" /><path
     style="fill:#800000;stroke-width:0.225469"
     d="m 138.98788,49.957728 3.47059,7.602245 8.26331,-8.990481 z"
     id="path34" /><path
     style="fill:#800000;stroke-width:0.225469"
     d="m 142.62374,34.191331 -3.50364,14.179843 7.43697,-7.866672 z"
     id="path35" /><path
     style="fill:#800000;stroke-width:0.225469"
     d="m 147.61478,40.537556 6.61064,-7.172555 -3.07395,13.089082 z"
     id="path36" /><path
     style="fill:#800000;stroke-width:0.225469"
     d="m 147.71394,26.820458 5.05715,-6.94118 1.68571,11.535581 z"
     id="path37" /><path
     style="fill:#800000;stroke-width:0.225469"
     d="m 139.97948,22.523537 6.6437,4.429134 -3.76807,5.288519 z"
     id="path38" /><path
     style="fill:#800000;stroke-width:0.225469"
     d="m 133.33578,13.896642 6.04875,7.073393 11.53557,-1.850982 z"
     id="path39" /><path
     style="fill:#800000;stroke-width:0.225469"
     d="m 128.27863,8.8394958 14.21289,4.2638682 8.59385,5.222412 z"
     id="path40" /><path
     style="fill:#800000;stroke-width:0.225469"
     d="m 158.93551,38.653519 9.25491,-2.710364 -3.14006,6.313168 z"
     id="path41" /><path
     style="fill:#800000;stroke-width:0.225469"
     d="m 93.210872,71.545099 -0.654415,1.2621 0.467441,11.03167 13.415632,4.90815 -1.86978,-11.31213 z"
     id="path42" /><path
     style="fill:#800000;stroke-width:0.225469"
     d="m 79.756473,68.401439 4.94146,-0.0661 -2.032773,0.87592 z"
     id="path43" /><path
     style="fill:#800000;stroke-width:0.225469"
     d="m 88.515582,69.971469 5.024091,-0.72718 -0.809799,1.63614 z"
     id="path44" /><path
     style="fill:#800000;stroke-width:0.225469"
     d="m 105.78591,73.772589 -0.38012,2.82605 4.11513,-1.43781 z"
     id="path45" /><path
     style="fill:#800000;stroke-width:0.225469"
     d="m 111.38842,73.937849 -0.46274,1.14034 1.40476,0.72717 z"
     id="path46" /><path
     style="fill:#800000;stroke-width:0.225469"
     d="m 20.663657,68.179509 7.408979,-3.71617 -0.864771,7.45572 z"
     id="path47" /><path
     style="fill:#800000;stroke-width:0.225469"
     d="m 27.675308,72.994179 -0.677793,6.77793 6.03002,-3.83304 z"
     id="path48" /><path
     style="fill:#800000;stroke-width:0.225469"
     d="m 118.33596,81.034209 4.97828,-1.19198 -0.79466,1.33221 z"
     id="path49" /><path
     style="fill:#800000;stroke-width:0.225469"
     d="m 118.42945,88.560049 4.6978,-7.01165 5.84305,-0.14023 z"
     id="path50" /><path
     style="fill:#800000;stroke-width:0.225469"
     d="m 127.91855,74.349769 -2.8514,4.37059 7.57258,-1.93989 z"
     id="path51" /><path
     style="fill:#d45500;stroke-width:0.225469"
     d="m 24.075994,44.947574 9.068401,-18.83797 0.654422,11.452364 z"
     id="path52" /><path
     style="fill:#d45500;stroke-width:0.225469"
     d="m 43.241175,47.798979 0.04674,5.095133 10.751198,-2.80466 z"
     id="path53" /><path
     style="fill:#d45500;stroke-width:0.225469"
     d="m 29.545083,58.176223 12.620972,10.143526 0.280466,-6.26375 z"
     id="path54" /><path
     style="fill:#d45500;stroke-width:0.225469"
     d="m 20.523424,69.161139 5.936531,9.44236 0.560933,-5.93653 z"
     id="path55" /><path
     style="fill:#d45500;stroke-width:0.225469"
     d="m 55.67517,68.506729 3.22536,6.59095 3.879779,-2.89815 z"
     id="path56" /><path
     style="fill:#d45500;stroke-width:0.225469"
     d="m 67.875442,78.042569 -3.178614,-4.5342 12.060039,7.15188 z"
     id="path57" /><path
     style="fill:#d45500;stroke-width:0.225469"
     d="m 76.663378,89.307959 2.89815,-6.77793 9.489103,7.10514 z"
     id="path58" /><path
     style="fill:#d45500;stroke-width:0.225469"
     d="m 83.581543,69.675329 3.646057,-1.5893 -0.4207,1.68279 z"
     id="path59" /><path
     style="fill:#d45500;stroke-width:0.225469"
     d="m 88.30272,70.563479 4.160246,0.84139 -0.327207,0.93489 z"
     id="path60" /><path
     style="fill:#d45500;stroke-width:0.225469"
     d="m 94.753447,71.638589 9.676073,-0.18697 0.70117,2.24373 -0.46745,2.89815 z"
     id="path61" /><path
     style="fill:#d45500;stroke-width:0.225469"
     d="m 106.86023,73.461619 4.1135,-0.28046 -0.65442,1.68279 z"
     id="path62" /><path
     style="fill:#d45500;stroke-width:0.225469"
     d="m 118.17235,80.473279 8.41399,-5.18863 -2.57094,3.87978 z"
     id="path63" /><path
     style="fill:#d45500;stroke-width:0.225469"
     d="m 128.59635,73.929069 9.3956,-11.73283 -4.53419,14.30377 z"
     id="path64" /><path
     style="fill:#d45500;stroke-width:0.225469"
     d="m 123.68819,80.987469 1.12186,-1.49582 7.66608,-1.96327 -2.89815,3.45909 z"
     id="path65" /><path
     style="fill:#d45500;stroke-width:0.225469"
     d="m 142.47942,71.124409 0.51419,-11.592599 7.57257,10.237009 z"
     id="path66" /><path
     style="fill:#d45500;stroke-width:0.225469"
     d="m 133.83171,81.922349 7.01165,-8.36724 -5.32885,13.92981 z"
     id="path67" /><path
     style="fill:#d45500;stroke-width:0.225469"
     d="m 165.15042,80.052579 -10.89143,-7.52584 -17.90308,15.33214 z"
     id="path68" /><path
     style="fill:#d45500;stroke-width:0.225469"
     d="m 139.3008,49.154566 7.71281,-8.133516 3.7863,6.076763 -0.0468,0.841399 z"
     id="path69" /><path
     style="fill:#d45500;stroke-width:0.225469"
     d="m 168.6095,36.533592 2.57094,9.255381 -5.46909,-3.272105 z"
     id="path70" /><path
     style="fill:#d45500;stroke-width:0.225469"
     d="m 162.85995,47.845723 7.85304,-0.841397 -7.57257,11.826317 -4.11351,-3.739546 z"
     id="path71" /><path
     style="fill:#d45500;stroke-width:0.225469"
     d="m 139.86173,21.622148 12.01329,-2.196984 -4.76792,7.011651 z"
     id="path72" /><path
     style="fill:#d45500;stroke-width:0.225469"
     d="m 129.76495,102.9573 10.33051,-5.001638 1.54256,3.038378 z"
     id="path73" /><path
     style="fill:#d45500;stroke-width:0.225469"
     d="m 87.835277,109.64174 -1.682796,6.217 19.772859,6.12351 z"
     id="path74" /><path
     style="fill:#d45500;stroke-width:0.225469"
     d="m 107.32767,111.04407 3.55257,8.88143 -3.03838,2.43071 z"
     id="path75" /><path
     style="fill:#d45500;stroke-width:0.225469"
     d="m 93.725062,129.78855 12.761208,-6.26374 -4.86141,6.35723 z"
     id="path76" /><path
     style="fill:#d45500;stroke-width:0.225469"
     d="m 79.655017,141.89534 7.245372,-18.1368 5.14188,6.59095 z"
     id="path77" /><path
     style="fill:#4d4d4d;stroke-width:0.225469"
     d="m 56.751417,13.004204 1.02465,3.635857 15.2706,-10.0151332 z"
     id="path78" /><path
     style="fill:#4d4d4d;stroke-width:0.225469"
     d="m 55.825928,10.475631 0.760222,2.280674 -14.593006,5.685158 z"
     id="path79" /><path
     style="fill:#4d4d4d;stroke-width:0.225469"
     d="m 41.530399,18.755467 11.304208,7.618773 2.280676,23.087688 -13.816256,-30.3594 0.01652,-0.380112 z"
     id="path80" /><path
     style="fill:#4d4d4d;stroke-width:0.225469"
     d="m 41.216394,19.515692 0.495799,1.074231 1.289076,26.872286 -4.346502,-15.435865 z"
     id="path81" /><path
     style="fill:#4d4d4d;stroke-width:0.225469"
     d="M 28.028151,57.212915 42.852529,47.677054 V 53.42832 L 28.17689,57.493868 Z"
     id="path82" /><path
     style="fill:#4d4d4d;stroke-width:0.225469"
     d="m 22.789212,47.01599 -0.214847,-0.247899 0.19832,-0.710645 11.552108,-8.279838 8.081517,9.767233 -0.545377,0.380112 z"
     id="path83" /><path
     style="fill:#4d4d4d;stroke-width:0.225469"
     d="m 42.680243,53.852372 0.654421,-0.163606 -0.02337,-0.444072 11.63934,-3.038382 -0.584305,1.589309 -7.85305,10.938178 -3.809662,-1.02838 z"
     id="path84" /><path
     style="fill:#4d4d4d;stroke-width:0.225469"
     d="m 42.656871,68.833929 0.53756,0.81803 10.166894,4.23036 -2.921522,-9.86305 -3.412337,-1.16861 -0.327211,0.39733 -0.350583,-0.0467 z"
     id="path85" /><path
     style="fill:#4d4d4d;stroke-width:0.225469"
     d="m 28.493335,64.182869 -0.934888,8.34387 5.983276,3.22536 h 0.420699 l 8.460726,-5.86642 z"
     id="path86" /><path
     style="fill:#4d4d4d;stroke-width:0.225469"
     d="m 27.488331,80.052579 2.383962,0.65441 0.584303,-0.4207 13.111787,1.02838 -9.325494,-5.21199 -1.028377,0.0234 z"
     id="path87" /><path
     style="fill:#4d4d4d;stroke-width:0.225469"
     d="m 44.736993,81.688629 16.500753,1.30884 0.654422,0.49082 -4.510831,5.28211 -2.47745,-0.74791 0.163605,-0.60768 z"
     id="path88" /><path
     style="fill:#4d4d4d;stroke-width:0.225469"
     d="m 32.232882,86.666899 26.924741,9.045033 1.916518,6.170248 z"
     id="path89" /><path
     style="fill:#4d4d4d;stroke-width:0.225469"
     d="m 75.938843,90.196099 -17.85634,-0.91151 -0.467444,0.49081 1.91652,5.422343 0.77128,0.37396 z"
     id="path90" /><path
     style="fill:#4d4d4d;stroke-width:0.225469"
     d="m 71.82534,100.363 4.043386,-9.746201 0.537558,-0.25709 0.04674,-0.6778 12.714462,0.32722 z"
     id="path91" /><path
     style="fill:#4d4d4d;stroke-width:0.225469"
     d="m 90.546449,89.845519 2.360591,-5.56258 13.55586,4.9549 z"
     id="path92" /><path
     style="fill:#4d4d4d;stroke-width:0.225469"
     d="m 102.84021,93.000762 3.59932,-3.435713 1.14524,0.0935 9.09177,-8.29712 5.81967,0.23372 -4.7913,7.40898 -1.33221,0.77128 z"
     id="path93" /><path
     style="fill:#4d4d4d;stroke-width:0.225469"
     d="M 102.53637,93.234482 87.34446,107.88883 72.199294,100.52659 73.321158,99.872182 Z"
     id="path94" /><path
     style="fill:#4d4d4d;stroke-width:0.225469"
     d="m 88.092371,108.40302 18.534129,-0.14023 1.8464,-2.29048 8.81131,-16.243651 -28.467301,17.318771 -1.028376,1.02838 z"
     id="path95" /><path
     style="fill:#4d4d4d;stroke-width:0.225469"
     d="m 106.97583,108.32975 1.40475,-1.68571 0.64454,-0.0165 24.06276,-24.525501 0.39664,0.0496 1.98319,6.67675 -0.84286,7.172553 -11.17199,3.63586 z"
     id="path96" /><path
     style="fill:#4d4d4d;stroke-width:0.225469"
     d="m 136.21141,89.092759 4.16471,8.098053 21.38544,-10.180403 z"
     id="path97" /><path
     style="fill:#4d4d4d;stroke-width:0.225469"
     d="m 173.92516,55.609831 -7.66835,24.261078 -4.56135,-12.92382 z"
     id="path98" /><path
     style="fill:#4d4d4d;stroke-width:0.225469"
     d="m 151.44895,70.120209 2.84258,1.88403 5.81737,-4.82577 z"
     id="path99" /><path
     style="fill:#4d4d4d;stroke-width:0.225469"
     d="m 142.88817,57.890505 0.29747,0.793279 v 0.39664 l 7.6353,10.213455 7.5692,-14.212898 -6.80897,-6.147903 -0.62802,0.0661 z"
     id="path100" /><path
     style="fill:#4d4d4d;stroke-width:0.225469"
     d="m 151.9117,48.139799 6.74286,-9.155748 6.47844,3.801124 -2.51205,4.5944 z"
     id="path101" /><path
     style="fill:#4d4d4d;stroke-width:0.225469"
     d="m 158.72067,38.190774 9.71765,-2.842578 -7.66835,-10.015133 z"
     id="path102" /><path
     style="fill:#4d4d4d;stroke-width:0.225469"
     d="m 142.85511,33.728586 4.19776,6.643703 7.6353,-8.197205 -7.60224,-5.0902 -4.29692,6.147904 z"
     id="path103" /><path
     style="fill:#4d4d4d;stroke-width:0.225469"
     d="M 150.29209,18.424936 122.89096,7.0876738 133.23662,13.36779 Z"
     id="path104" /><path
     style="fill:#4d4d4d;stroke-width:0.225469"
     d="m 20.227586,55.213195 7.668352,8.693004 -7.767512,3.90028 z"
     id="path105" /><path
     style="fill:#4d4d4d;stroke-width:0.225469"
     d="m 55.776347,60.633926 6.974234,11.155463 -7.470033,-3.78459 -0.297478,-0.54538 z"
     id="path106" /><path
     style="fill:#4d4d4d;stroke-width:0.225469"
     d="m 60.188954,76.400319 7.370873,2.18152 6.709807,9.42017 z"
     id="path107" /><path
     style="fill:#4d4d4d;stroke-width:0.225469"
     d="m 76.336168,128.43297 8.834681,-11.1719 1.168609,5.00165 -8.554214,12.43399 z"
     id="path108" /><path
     style="fill:#4d4d4d;stroke-width:0.225469"
     d="m 93.351105,130.39624 7.946545,0.14023 -3.786293,32.06662 z"
     id="path109" /><path
     style="fill:#4d4d4d;stroke-width:0.225469"
     d="m 102.60649,129.74181 4.30048,-5.60932 7.47909,18.04332 -11.82631,-11.49911 z"
     id="path110" /><path
     style="font-size:40.896px;font-family:Goldman;-inkscape-font-specification:'Goldman, Normal';fill:#ff0000;stroke:#000000;stroke-width:1.24161"
     d="m 26.472309,60.167927 q -1.589524,0 -3.536691,-0.505052 -1.947167,-0.547139 -3.854596,-2.609433 l -1.669,-1.767681 Q 16.219879,54.023132 15.107212,53.223467 14.034283,52.423802 12.643449,52.045013 11.252616,51.624137 9.1464962,51.624137 H 8.8285913 v 8.122914 H 1.0796614 V 38.366532 L 0.68228034,34.957433 H 19.081022 q 2.543239,0 4.093025,0.673402 1.589524,0.631315 2.424024,1.725593 0.874238,1.052191 1.192143,2.398996 0.317905,1.346804 0.317905,2.735696 v 0.799665 q 0,2.525258 -1.231881,4.545465 -1.192143,1.978119 -3.814858,2.819871 0.993452,0.631315 1.867691,1.304717 0.913976,0.631315 2.066381,1.346804 1.311357,0.799666 2.424024,1.178454 1.152405,0.336701 1.907429,0.420877 0.755024,0.08417 0.874239,0.08417 L 30.009,59.747049 q -0.476857,0.126263 -1.470309,0.252525 -0.953715,0.168351 -2.066382,0.168351 z M 13.438211,46.026481 q 0.993453,0 1.907429,-0.04209 0.953715,-0.04209 1.708739,-0.126263 1.351095,-0.168351 1.827952,-0.883841 0.516596,-0.757577 0.516596,-1.809768 v -0.462964 q 0,-0.925928 -0.516596,-1.43098 -0.476857,-0.505051 -1.788214,-0.505051 H 8.8285913 v 5.092604 q 0.9934526,0.04209 2.1855957,0.126263 1.192143,0.04209 2.424024,0.04209 z m 24.558141,-6.944459 q -4.013548,0 -4.013548,-3.619537 0,-2.020207 0.993453,-2.777784 1.03319,-0.799665 3.020095,-0.799665 2.10612,0 3.059834,0.799665 0.993453,0.757577 0.993453,2.777784 0,3.619537 -4.053287,3.619537 z M 34.340447,59.747051 V 40.89179 h 7.232335 v 18.855261 z m 12.47776,0 V 33.06349 h 7.232335 v 8.333352 q 1.708739,-0.210439 4.013549,-0.336702 2.344548,-0.16835 5.324906,-0.16835 h 0.397381 q 2.582976,0 3.894334,0.841753 1.311357,0.799665 1.748476,2.230644 0.437119,1.388892 0.437119,3.156573 v 6.355233 q 0,1.557243 -0.516595,3.03031 -0.476857,1.430979 -1.788215,2.356907 -1.311357,0.883841 -3.775119,0.883841 h -0.397381 q -3.298263,0 -5.762025,-0.168351 -2.463763,-0.210438 -4.093025,-0.420876 l -1.072929,0.589227 z m 8.464216,-5.34513 h 5.324906 q 1.907429,0 1.907429,-1.683505 v -4.840079 q 0.03974,-0.925928 -0.357643,-1.304716 -0.397381,-0.378789 -1.549786,-0.378789 h -0.397381 q -2.066381,0 -3.735381,0.126263 -1.669001,0.126263 -2.424025,0.210438 v 6.565671 q 0,0.883841 0.158953,1.094279 0.19869,0.210438 1.072928,0.210438 z m 24.876074,5.34513 q -3.496953,0 -5.007001,-1.388892 -1.510048,-1.388892 -1.510048,-4.62964 0,-2.988222 1.549786,-4.335027 1.589524,-1.346804 4.967263,-1.346804 h 1.231881 q 2.225334,0 4.251977,0.168351 2.026643,0.16835 3.496953,0.336701 v -0.673403 q 0,-0.589226 -0.238429,-1.136366 -0.238428,-0.547139 -1.669,-0.547139 h -1.986905 q -4.331453,0 -6.676002,0.168351 -2.344548,0.126262 -2.900881,0.252525 l -0.437119,-4.461289 q 0,-0.420876 1.390833,-0.673402 1.390834,-0.294614 3.814858,-0.420877 2.424025,-0.16835 5.523597,-0.16835 h 3.97381 q 2.622712,0 4.013546,0.841753 1.390833,0.799665 1.90743,2.188557 0.516598,1.388892 0.516598,3.19866 v 12.626291 h -5.642812 l -1.549786,-0.841753 q -0.953714,0.210438 -3.059834,0.547139 -2.066381,0.294614 -4.768572,0.294614 z m 2.30481,-4.966341 h 5.483858 q 0.874238,0 1.033191,-0.168351 0.158952,-0.16835 0.158952,-1.052191 v -1.473067 h -6.676001 q -0.755024,0 -1.112667,0.294613 -0.357643,0.294614 -0.357643,1.136367 0,0.799665 0.357643,1.052191 0.357643,0.210438 1.112667,0.210438 z m 23.763413,4.966341 q -2.70219,0 -3.97381,-0.252526 -1.27161,-0.252526 -1.27161,-0.589227 l 2.38428,-5.429305 q 0.91398,0.168351 3.77512,0.336701 2.86114,0.126263 7.43103,0.126263 h 3.13931 q 1.39084,0 1.86769,-0.420876 0.47686,-0.420877 0.47686,-1.220542 v -0.420876 q 0,-1.010103 -0.47686,-1.388892 -0.47685,-0.378789 -1.86769,-0.378789 h -9.10003 q -4.01354,0 -5.8415,-1.557242 -1.82796,-1.599331 -1.82796,-5.17678 v -1.515155 q 0,-1.851855 0.63582,-3.409098 0.67554,-1.557243 2.26507,-2.483171 1.58952,-0.968015 4.37119,-0.968015 h 13.19305 q 2.42403,0 4.01355,0.294613 1.62927,0.294614 1.62927,0.631315 l -1.19215,5.218867 q -1.11267,-0.126263 -4.21224,-0.252526 -3.05983,-0.168351 -7.78867,-0.168351 l -2.86114,-0.04209 q -1.23188,0 -1.74848,0.378788 -0.51659,0.336701 -0.55634,1.304717 v 0.294613 q 0,0.968016 0.55634,1.346805 0.55633,0.378789 1.78822,0.378789 h 8.74238 q 2.54324,0 4.33145,0.547139 1.78822,0.547139 2.74194,2.020206 0.95371,1.43098 0.95371,4.250852 v 1.515154 q 0,3.156573 -1.54979,5.092604 -1.51005,1.936032 -5.28517,1.936032 z m 32.0289,0 q -2.62271,0 -3.93407,-0.799665 -1.31136,-0.799665 -1.74848,-2.188557 -0.39738,-1.43098 -0.39738,-3.282836 V 47.12076 q 0,-1.767681 0.43712,-3.156573 0.43712,-1.430979 1.70874,-2.230644 1.31136,-0.841753 3.93407,-0.841753 h 11.04719 q 2.62272,0 3.89434,0.841753 1.31136,0.799665 1.70874,2.230644 0.43711,1.388892 0.43711,3.156573 v 6.355233 q 0,1.851856 -0.43711,3.282836 -0.39738,1.388892 -1.70874,2.188557 -1.27162,0.799665 -3.89434,0.799665 z m 3.17905,-5.303042 h 4.72884 q 1.90742,0 1.86769,-1.683506 v -4.882166 q 0,-0.841752 -0.43713,-1.262629 -0.39738,-0.420876 -1.43056,-0.420876 h -4.6891 q -1.03319,0 -1.47031,0.420876 -0.43712,0.420877 -0.43712,1.262629 v 4.882166 q -0.0397,1.683506 1.86769,1.683506 z m 19.94855,5.303042 V 46.194832 h -3.25852 v -5.260954 h 3.25852 v -2.904047 q 0,-6.22897 6.43757,-6.22897 h 2.74193 q 4.76857,0 6.83496,0.462964 2.10611,0.462964 2.10611,0.799665 l -1.19214,4.882165 q -0.67555,-0.294613 -2.42402,-0.547139 -1.74848,-0.294613 -4.21224,-0.294613 h -1.1524 q -0.99346,0 -1.47031,0.378788 -0.43712,0.378789 -0.43712,1.304717 v 2.14647 h 7.47076 v 5.260954 h -7.47076 v 13.552219 z m 26.62452,0 q -3.02009,0 -4.13276,-1.346805 -1.11266,-1.346804 -1.11266,-4.040413 v -8.165001 h -3.25853 V 40.89179 h 1.669 q 0.67555,0 1.07293,-0.252526 0.43712,-0.294613 0.55634,-1.010103 l 0.75502,-4.503377 h 6.51705 v 5.766006 h 6.63626 v 5.303042 h -6.63626 v 6.523584 q 0,1.05219 0.47686,1.388892 0.47685,0.336701 1.43056,0.336701 h 3.97381 l 0.79477,4.882165 q -0.8345,0.126263 -2.54324,0.294614 -1.70874,0.126263 -3.73538,0.126263 z"
     id="text149"
     aria-label="RibaSoft" /></svg>
